<svg fill="#fff" width="19px" height="19px" viewBox="0 0 1024 1024" xmlns="http://www.w3.org/2000/svg"><path d="M980.8 523.29c2.008-3.21 3.2-7.112 3.2-11.29s-1.192-8.08-3.253-11.38l.053.09c-.573-.985-1.147-1.827-1.775-2.625l.036.048c-1.894-2.602-4.237-4.754-6.933-6.38l-.106-.058c-.507-.305-.738-.896-1.273-1.164l-896.03-448C71.59 40.936 67.896 40 63.986 40c-13.254 0-24 10.745-24 24 0 3.422.717 6.677 2.008 9.623l-.06-.154L229.875 512 41.937 950.563c-1.217 2.78-1.925 6.017-1.925 9.42 0 13.255 10.736 24 23.986 24.017h.095c3.88 0 7.537-.947 10.755-2.62l-.13.06 896.034-447.97c.535-.27.768-.86 1.274-1.165 2.802-1.684 5.145-3.835 6.993-6.37l.046-.068c.59-.75 1.163-1.592 1.677-2.472l.057-.106zM111.875 114.78L858.312 488H271.836zM271.835 536h586.48l-746.44 373.248z"/></svg>